<?xml version="1.0" standalone="no"?>
<!DOCTYPE svg PUBLIC "-//W3C//DTD SVG 20010904//EN"
 "http://www.w3.org/TR/2001/REC-SVG-20010904/DTD/svg10.dtd">
<svg version="1.0" xmlns="http://www.w3.org/2000/svg"
 width="512.000000pt" height="512.000000pt" viewBox="0 0 512.000000 512.000000"
 preserveAspectRatio="xMidYMid meet">
<g transform="translate(0.000000,512.000000) scale(0.100000,-0.100000)"
fill="#556080" stroke="none">
<path d="M2235 5105 c-601 -85 -1100 -335 -1510 -756 -369 -379 -599 -827
-691 -1348 -32 -180 -44 -517 -24 -707 46 -457 222 -903 501 -1274 92 -122
250 -294 341 -372 l55 -47 44 34 c24 18 231 136 459 260 443 242 481 268 522
359 21 46 23 68 26 242 l3 191 -54 80 c-107 157 -185 318 -231 476 -20 70 -32
93 -65 126 -73 73 -76 86 -76 351 0 229 1 236 24 283 14 26 33 55 43 64 17 15
18 40 18 342 0 365 5 404 66 527 65 131 165 229 309 298 164 80 313 109 565
109 252 0 401 -29 565 -109 177 -85 280 -202 351 -399 16 -44 19 -91 22 -400
3 -324 5 -351 22 -370 10 -11 29 -40 42 -65 22 -42 23 -58 26 -250 3 -131 0
-224 -8 -257 -15 -69 -59 -126 -123 -163 -50 -28 -55 -34 -76 -97 -52 -150
-182 -385 -281 -508 l-32 -40 4 -191 4 -191 32 -66 c19 -37 49 -80 70 -97 20
-17 242 -134 492 -260 250 -125 472 -242 494 -259 l39 -31 56 49 c371 325 656
786 779 1261 65 250 76 348 77 655 0 307 -8 384 -67 625 -81 334 -248 679
-465 959 -92 118 -288 317 -408 414 -342 276 -736 455 -1174 534 -128 22 -179
26 -406 29 -186 2 -289 -1 -360 -11z"/>
</g>
</svg>
